<?xml version="1.0" encoding="UTF-8" standalone="no"?>
<!-- Created with Inkscape (http://www.inkscape.org/) -->

<svg
   width="210mm"
   height="297mm"
   viewBox="0 0 210 297"
   version="1.1"
   id="svg5"
   xml:space="preserve"
   inkscape:export-filename="bitmap.svg"
   inkscape:export-xdpi="96"
   inkscape:export-ydpi="96"
   xmlns:inkscape="http://www.inkscape.org/namespaces/inkscape"
   xmlns:sodipodi="http://sodipodi.sourceforge.net/DTD/sodipodi-0.dtd"
   xmlns="http://www.w3.org/2000/svg"
   xmlns:svg="http://www.w3.org/2000/svg"><sodipodi:namedview
     id="namedview7"
     pagecolor="#505050"
     bordercolor="#eeeeee"
     borderopacity="1"
     inkscape:showpageshadow="0"
     inkscape:pageopacity="0"
     inkscape:pagecheckerboard="0"
     inkscape:deskcolor="#505050"
     inkscape:document-units="mm"
     showgrid="false" /><defs
     id="defs2" /><g
     inkscape:label="Camada 1"
     inkscape:groupmode="layer"
     id="layer1"><g
       id="g4086"><g
         id="g4092"><g
           id="g4509"><path
             style="opacity:1;fill:#00b600;fill-opacity:1;stroke:#000000;stroke-width:0.2;stroke-linecap:round;stroke-linejoin:round;stroke-miterlimit:4.7;stroke-dasharray:none"
             d="m 103.9553,148.84434 -0.14692,-3.34948 0.30218,-3.01203 0.59478,-3.33898 -3.07035,-6.97242 -1.02986,-3.32811 2.79946,3.22426 2.50081,3.7761 3.46445,-5.23108 3.23589,-3.66938 -2.5502,-3.21518 -2.02727,-2.0593 -2.19435,-2.00518 -3.32869,-2.52084 -5.317831,-2.83733 -5.082701,-2.06292 -1.26772,4.71172 -0.514165,2.88989 -0.470938,2.87031 -0.147299,4.02883 0.317843,2.98163 0.678934,3.24968 1.103329,3.66919 3.019977,4.14694 2.292744,2.81612 3.100647,2.57818 z"
             id="path233"
             sodipodi:nodetypes="ccccccccccccccccccccccccccc" /><path
             style="opacity:1;fill:#00b800;fill-opacity:1;stroke:#000000;stroke-width:0.2;stroke-linecap:round;stroke-linejoin:round;stroke-miterlimit:4.7;stroke-dasharray:none"
             d="m 106.425,154.79357 -0.48072,-1.51544 -0.35791,-2.8223 0.0836,-0.91696 0.005,-2.32426 0.32561,-3.0989 2.10406,-5.26833 1.34371,-2.42207 2.13866,-2.84603 4.55894,-3.96611 6.21016,-4.27003 7.00036,-3.20016 0.96981,3.00159 0.52549,2.44395 0.90482,4.00494 0.15121,4.67526 -0.30122,4.67522 -1.4784,4.3061 -0.96189,2.22415 -1.50991,2.72022 -1.4611,1.94725 -2.13464,2.20538 -2.34066,1.94136 -2.96405,2.00643 -4.59836,2.2984 -2.92073,1.23246 -2.93181,0.97773 -2.22938,0.90635 -1.59545,0.73537 -1.93414,1.61452 -2.06606,2.28568 0.2278,-1.67358 0.90909,-1.56152 1.48824,-1.61515 3.14556,-2.11646 2.71075,-2.12969 2.89414,-2.95422 3.57942,-5.03083 2.8709,-4.61966 1.70856,-3.87393 0.55547,-1.56812 0.53612,-2.40835 -6.45033,8.45043 -4.43434,4.73805 -2.27695,2.03875 z"
             id="path1062"
             sodipodi:nodetypes="cccccccccccccccccccccccccccccccccccccccccccccc" /><text
             xml:space="preserve"
             style="font-size:23.7306px;font-family:'David CLM';-inkscape-font-specification:'David CLM, Normal';opacity:1;fill:#ffffff;stroke:#000000;stroke-width:0.2;stroke-linecap:round;stroke-linejoin:round;stroke-miterlimit:4.7;stroke-dasharray:none"
             x="78.267822"
             y="184.47481"
             id="text3304"
             transform="scale(1.0027567,0.99725087)"><tspan
               sodipodi:role="line"
               id="tspan3302"
               style="fill:#ffffff;stroke:#000000;stroke-width:0.2"
               x="78.267822"
               y="184.47481">Plant<tspan
   style="fill:#00b800;fill-opacity:1"
   id="tspan4298">Ai</tspan></tspan></text></g></g></g></g></svg>
